<svg width="151" height="19" viewBox="0 0 151 19" fill="none" xmlns="http://www.w3.org/2000/svg">
<path d="M13.328 9.264C14.288 9.568 15.04 10.08 15.584 10.8C16.128 11.504 16.4 12.376 16.4 13.416C16.4 14.888 15.824 16.024 14.672 16.824C13.536 17.608 11.872 18 9.68 18H0.992V1.2H9.2C11.248 1.2 12.816 1.592 13.904 2.376C15.008 3.16 15.56 4.224 15.56 5.568C15.56 6.384 15.36 7.112 14.96 7.752C14.576 8.392 14.032 8.896 13.328 9.264ZM4.856 4.128V8.088H8.72C9.68 8.088 10.408 7.92 10.904 7.584C11.4 7.248 11.648 6.752 11.648 6.096C11.648 5.44 11.4 4.952 10.904 4.632C10.408 4.296 9.68 4.128 8.72 4.128H4.856ZM9.392 15.072C10.416 15.072 11.184 14.904 11.696 14.568C12.224 14.232 12.488 13.712 12.488 13.008C12.488 11.616 11.456 10.92 9.392 10.92H4.856V15.072H9.392ZM22.7556 6.792C23.2036 6.168 23.8036 5.696 24.5556 5.376C25.3236 5.056 26.2036 4.896 27.1956 4.896V8.352C26.7796 8.32 26.4996 8.304 26.3556 8.304C25.2836 8.304 24.4436 8.608 23.8356 9.216C23.2276 9.808 22.9236 10.704 22.9236 11.904V18H19.1796V5.088H22.7556V6.792ZM34.6594 4.896C36.6594 4.896 38.1954 5.376 39.2674 6.336C40.3394 7.28 40.8754 8.712 40.8754 10.632V18H37.3714V16.392C36.6674 17.592 35.3554 18.192 33.4354 18.192C32.4434 18.192 31.5794 18.024 30.8434 17.688C30.1234 17.352 29.5714 16.888 29.1874 16.296C28.8034 15.704 28.6114 15.032 28.6114 14.28C28.6114 13.08 29.0594 12.136 29.9554 11.448C30.8674 10.76 32.2674 10.416 34.1554 10.416H37.1314C37.1314 9.6 36.8834 8.976 36.3874 8.544C35.8914 8.096 35.1474 7.872 34.1554 7.872C33.4674 7.872 32.7874 7.984 32.1154 8.208C31.4594 8.416 30.8994 8.704 30.4354 9.072L29.0914 6.456C29.7954 5.96 30.6354 5.576 31.6114 5.304C32.6034 5.032 33.6194 4.896 34.6594 4.896ZM34.3714 15.672C35.0114 15.672 35.5794 15.528 36.0754 15.24C36.5714 14.936 36.9234 14.496 37.1314 13.92V12.6H34.5634C33.0274 12.6 32.2594 13.104 32.2594 14.112C32.2594 14.592 32.4434 14.976 32.8114 15.264C33.1954 15.536 33.7154 15.672 34.3714 15.672ZM52.2119 4.896C53.8119 4.896 55.0999 5.376 56.0759 6.336C57.0679 7.296 57.5639 8.72 57.5639 10.608V18H53.8199V11.184C53.8199 10.16 53.5959 9.4 53.1479 8.904C52.6999 8.392 52.0519 8.136 51.2039 8.136C50.2599 8.136 49.5079 8.432 48.9479 9.024C48.3879 9.6 48.1079 10.464 48.1079 11.616V18H44.3639V5.088H47.9399V6.6C48.4359 6.056 49.0519 5.64 49.7879 5.352C50.5239 5.048 51.3319 4.896 52.2119 4.896ZM74.3503 0.191999V18H70.7743V16.512C69.8463 17.632 68.5023 18.192 66.7423 18.192C65.5263 18.192 64.4223 17.92 63.4303 17.376C62.4543 16.832 61.6863 16.056 61.1263 15.048C60.5663 14.04 60.2863 12.872 60.2863 11.544C60.2863 10.216 60.5663 9.048 61.1263 8.04C61.6863 7.032 62.4543 6.256 63.4303 5.712C64.4223 5.168 65.5263 4.896 66.7423 4.896C68.3903 4.896 69.6783 5.416 70.6063 6.456V0.191999H74.3503ZM67.3903 15.12C68.3343 15.12 69.1183 14.8 69.7423 14.16C70.3663 13.504 70.6783 12.632 70.6783 11.544C70.6783 10.456 70.3663 9.592 69.7423 8.952C69.1183 8.296 68.3343 7.968 67.3903 7.968C66.4303 7.968 65.6383 8.296 65.0143 8.952C64.3903 9.592 64.0783 10.456 64.0783 11.544C64.0783 12.632 64.3903 13.504 65.0143 14.16C65.6383 14.8 66.4303 15.12 67.3903 15.12ZM93.5875 1.2V18H90.3955L82.0195 7.8V18H78.1795V1.2H81.3955L89.7475 11.4V1.2H93.5875ZM102.606 4.896C104.606 4.896 106.142 5.376 107.214 6.336C108.286 7.28 108.822 8.712 108.822 10.632V18H105.318V16.392C104.614 17.592 103.302 18.192 101.382 18.192C100.39 18.192 99.5263 18.024 98.7903 17.688C98.0703 17.352 97.5183 16.888 97.1343 16.296C96.7503 15.704 96.5583 15.032 96.5583 14.28C96.5583 13.08 97.0063 12.136 97.9023 11.448C98.8143 10.76 100.214 10.416 102.102 10.416H105.078C105.078 9.6 104.83 8.976 104.334 8.544C103.838 8.096 103.094 7.872 102.102 7.872C101.414 7.872 100.734 7.984 100.062 8.208C99.4063 8.416 98.8463 8.704 98.3823 9.072L97.0383 6.456C97.7423 5.96 98.5823 5.576 99.5583 5.304C100.55 5.032 101.566 4.896 102.606 4.896ZM102.318 15.672C102.958 15.672 103.526 15.528 104.022 15.24C104.518 14.936 104.87 14.496 105.078 13.92V12.6H102.51C100.974 12.6 100.206 13.104 100.206 14.112C100.206 14.592 100.39 14.976 100.758 15.264C101.142 15.536 101.662 15.672 102.318 15.672ZM128.847 4.896C130.463 4.896 131.743 5.376 132.687 6.336C133.647 7.28 134.127 8.704 134.127 10.608V18H130.383V11.184C130.383 10.16 130.167 9.4 129.735 8.904C129.319 8.392 128.719 8.136 127.935 8.136C127.055 8.136 126.359 8.424 125.847 9C125.335 9.56 125.079 10.4 125.079 11.52V18H121.335V11.184C121.335 9.152 120.519 8.136 118.887 8.136C118.023 8.136 117.335 8.424 116.823 9C116.311 9.56 116.055 10.4 116.055 11.52V18H112.311V5.088H115.887V6.576C116.367 6.032 116.951 5.616 117.639 5.328C118.343 5.04 119.111 4.896 119.943 4.896C120.855 4.896 121.679 5.08 122.415 5.448C123.151 5.8 123.743 6.32 124.191 7.008C124.719 6.336 125.383 5.816 126.183 5.448C126.999 5.08 127.887 4.896 128.847 4.896ZM150.371 11.592C150.371 11.64 150.347 11.976 150.299 12.6H140.531C140.707 13.4 141.123 14.032 141.779 14.496C142.435 14.96 143.251 15.192 144.227 15.192C144.899 15.192 145.491 15.096 146.003 14.904C146.531 14.696 147.019 14.376 147.467 13.944L149.459 16.104C148.243 17.496 146.467 18.192 144.131 18.192C142.675 18.192 141.387 17.912 140.267 17.352C139.147 16.776 138.283 15.984 137.675 14.976C137.067 13.968 136.763 12.824 136.763 11.544C136.763 10.28 137.059 9.144 137.651 8.136C138.259 7.112 139.083 6.32 140.123 5.76C141.179 5.184 142.355 4.896 143.651 4.896C144.915 4.896 146.059 5.168 147.083 5.712C148.107 6.256 148.907 7.04 149.483 8.064C150.075 9.072 150.371 10.248 150.371 11.592ZM143.675 7.728C142.827 7.728 142.115 7.968 141.539 8.448C140.963 8.928 140.611 9.584 140.483 10.416H146.843C146.715 9.6 146.363 8.952 145.787 8.472C145.211 7.976 144.507 7.728 143.675 7.728Z" fill="white"/>
</svg>
