<svg width="44" height="59" viewBox="0 0 44 59" fill="none" xmlns="http://www.w3.org/2000/svg">
<path fill-rule="evenodd" clip-rule="evenodd" d="M0 14.4287C0 12.4585 0.77964 10.569 2.16741 9.17582C3.55518 7.78266 5.4374 7 7.4 7H29.6C31.5626 7 33.4448 7.78266 34.8326 9.17582C36.2204 10.569 37 12.4585 37 14.4287V57.1438C36.9998 57.4797 36.9089 57.8093 36.7369 58.0975C36.5649 58.3856 36.3182 58.6215 36.0232 58.7801C35.7282 58.9387 35.3959 59.0139 35.0616 58.9979C34.7273 58.9818 34.4037 58.8751 34.1251 58.689L18.5 48.233L2.8749 58.689C2.59631 58.8751 2.27265 58.9818 1.9384 58.9979C1.60414 59.0139 1.27181 58.9387 0.976798 58.7801C0.681783 58.6215 0.435135 58.3856 0.263122 58.0975C0.0911089 57.8093 0.000172866 57.4797 0 57.1438V14.4287ZM7.4 10.7144C6.4187 10.7144 5.47759 11.1057 4.7837 11.8023C4.08982 12.4988 3.7 13.4436 3.7 14.4287V53.6746L17.4751 44.4555C17.7787 44.2527 18.1353 44.1445 18.5 44.1445C18.8647 44.1445 19.2213 44.2527 19.5249 44.4555L33.3 53.6746V14.4287C33.3 13.4436 32.9102 12.4988 32.2163 11.8023C31.5224 11.1057 30.5813 10.7144 29.6 10.7144H7.4Z" fill="#23A6F0"/>
<path fill-rule="evenodd" clip-rule="evenodd" d="M8 3.64292H36.6017C37.5828 3.64292 38.5237 4.02673 39.2174 4.70991C39.9111 5.39309 40.3009 6.31968 40.3009 7.28585V50.1558L41.1258 50.6949C41.4043 50.8775 41.7279 50.9822 42.0621 50.9979C42.3962 51.0137 42.7285 50.9398 43.0234 50.7843C43.3184 50.6288 43.565 50.3974 43.7369 50.1148C43.9089 49.8322 43.9998 49.509 44 49.1795V7.28585C44 5.35352 43.2205 3.50034 41.8331 2.13398C40.4456 0.767614 38.5639 0 36.6017 0L14.4069 0C13.1083 3.24892e-05 11.8325 0.3367 10.7079 0.976165C9.58323 1.61563 8.64932 2.53536 8 3.64292Z" fill="#23A6F0"/>
</svg>
